<svg width="646" height="543" viewBox="0 0 646 543" fill="none" xmlns="http://www.w3.org/2000/svg">
<path d="M85.2 478.2C89.2 478.2 92.5 479.6 95.3 482.4C98.1 485.2 99.5 488.6 99.5 492.5V542.1H48.8C44.8 542.1 41.5 540.7 38.7 537.9C35.9 535.1 34.5 531.7 34.5 527.8V504.2H87.6V492.5C87.6 491.8 87.4 491.3 86.9 490.8C86.4 490.3 85.9 490.1 85.2 490.1H34.5V478.2H85.2ZM87.6 530.2V516.1H46.4V527.8C46.4 528.5 46.6 529 47.1 529.5C47.6 530 48.1 530.2 48.8 530.2H87.6ZM202.3 478.2H215L191 542.1H181.3L159.8 494.6L139.5 542.1L139.3 542L139.4 542.1H129.8L104.7 478.2H117.3L134.6 520.6L153 478.2H166.6L186.1 520.6L202.3 478.2ZM269.5 478.2C273.5 478.2 276.8 479.6 279.6 482.4C282.4 485.2 283.8 488.6 283.8 492.5V516.1H230.7V527.8C230.7 528.5 230.9 529 231.4 529.5C231.9 530 232.4 530.2 233.1 530.2H283.8V542.1H233.1C229.1 542.1 225.8 540.7 223 537.9C220.2 535.1 218.8 531.7 218.8 527.8V492.5C218.8 488.5 220.2 485.2 223 482.4C225.8 479.6 229.2 478.2 233.1 478.2H269.5ZM230.7 504.2H271.9V492.5C271.9 491.8 271.7 491.3 271.2 490.8C270.7 490.3 270.2 490.1 269.5 490.1H233.1C232.4 490.1 231.9 490.3 231.4 490.8C230.9 491.3 230.7 491.8 230.7 492.5V504.2ZM359.7 492.6V495H347.8V492.6C347.8 491.9 347.6 491.4 347.1 490.9C346.6 490.4 346.1 490.2 345.4 490.2H309C308.3 490.2 307.8 490.4 307.3 490.9C306.8 491.4 306.6 491.9 306.6 492.6V501.9C306.6 502.6 306.8 503.1 307.3 503.6C307.8 504.1 308.3 504.3 309 504.3H345.4C349.4 504.3 352.7 505.7 355.5 508.5C358.3 511.3 359.7 514.7 359.7 518.6V527.9C359.7 531.9 358.3 535.2 355.5 538C352.7 540.8 349.3 542.2 345.4 542.2H309C305 542.2 301.7 540.8 298.9 538C296.1 535.2 294.7 531.8 294.7 527.9V525.5H306.6V527.9C306.6 528.6 306.8 529.1 307.3 529.6C307.8 530.1 308.3 530.3 309 530.3H345.4C346.1 530.3 346.6 530.1 347.1 529.6C347.6 529.1 347.8 528.6 347.8 527.9V518.6C347.8 517.9 347.6 517.4 347.1 516.9C346.6 516.4 346.1 516.2 345.4 516.2H309C305 516.2 301.7 514.8 298.9 512C296.1 509.2 294.7 505.8 294.7 501.9V492.6C294.7 488.6 296.1 485.3 298.9 482.5C301.7 479.7 305.1 478.3 309 478.3H345.4C349.4 478.3 352.7 479.7 355.5 482.5C358.3 485.2 359.7 488.6 359.7 492.6ZM384.9 478.2H421.3C425.3 478.2 428.6 479.6 431.4 482.4C434.2 485.2 435.6 488.6 435.6 492.5V527.8C435.6 531.8 434.2 535.1 431.4 537.9C428.6 540.7 425.2 542.1 421.3 542.1H384.9C380.9 542.1 377.6 540.7 374.8 537.9C372 535.1 370.6 531.7 370.6 527.8V492.5C370.6 488.5 372 485.2 374.8 482.4C377.6 479.6 381 478.2 384.9 478.2ZM421.3 490.1H384.9C384.2 490.1 383.7 490.3 383.2 490.8C382.7 491.3 382.5 491.8 382.5 492.5V527.8C382.5 528.5 382.7 529 383.2 529.5C383.7 530 384.2 530.2 384.9 530.2H421.3C422 530.2 422.5 530 423 529.5C423.5 529 423.7 528.5 423.7 527.8V492.5C423.7 491.8 423.5 491.3 423 490.8C422.5 490.4 422 490.1 421.3 490.1ZM528.8 478.2C532.8 478.2 536.1 479.6 538.9 482.4C541.7 485.2 543.1 488.6 543.1 492.5V542.1H531.3V492.5C531.3 491.8 531.1 491.3 530.6 490.8C530.1 490.3 529.5 490.1 528.8 490.1H503.6C502.9 490.1 502.4 490.3 501.9 490.8C501.4 491.3 501.2 491.8 501.2 492.5V542.1H489.3V492.5C489.3 491.8 489.1 491.3 488.6 490.8C488.1 490.3 487.6 490.1 486.9 490.1H461.6C460.9 490.1 460.4 490.3 459.9 490.8C459.4 491.3 459.2 491.8 459.2 492.5V542.1H447.3V478.2H528.8ZM605.3 478.2C609.3 478.2 612.6 479.6 615.4 482.4C618.2 485.2 619.6 488.6 619.6 492.5V516.1H566.5V527.8C566.5 528.5 566.7 529 567.2 529.5C567.7 530 568.2 530.2 568.9 530.2H619.6V542.1H568.9C564.9 542.1 561.6 540.7 558.8 537.9C556 535.1 554.6 531.7 554.6 527.8V492.5C554.6 488.5 556 485.2 558.8 482.4C561.6 479.6 565 478.2 568.9 478.2H605.3ZM566.5 504.2H607.7V492.5C607.7 491.8 607.5 491.3 607 490.8C606.5 490.3 606 490.1 605.3 490.1H568.9C568.2 490.1 567.7 490.3 567.2 490.8C566.7 491.3 566.5 491.8 566.5 492.5V504.2Z" fill="#494368"/>
<path d="M361.76 431H600.78C608.407 431 615.708 428.318 622.313 424.535C628.919 420.752 635.728 416.002 639.54 409.449C643.352 402.897 646.003 395.462 646 387.898C645.997 380.332 643.358 372.9 639.54 366.352L478.04 88.3554C474.228 81.8035 469.57 77.0523 462.967 73.2694C456.362 69.488 446.906 66.8044 439.28 66.8044C431.654 66.8044 424.35 69.488 417.747 73.2694C411.142 77.0523 406.485 81.8035 402.673 88.3554L361.76 159.47L279.933 21.5449C276.118 14.9945 271.466 8.09192 264.86 4.31051C258.254 0.527573 250.954 0 243.327 0C235.7 0 228.399 0.527573 221.793 4.31051C215.188 8.09192 208.382 14.9945 204.567 21.5449L4.30673 366.352C0.48878 372.9 0.00336859 380.332 1.67068e-05 387.898C-0.00333518 395.462 0.49457 402.896 4.30673 409.449C8.11889 416.001 14.928 420.752 21.5333 424.535C28.1388 428.318 35.4391 431 43.0667 431H193.8C253.526 431 296.999 404.187 327.307 353.42L400.52 226.275L439.28 159.47L557.713 362.04H400.52L361.76 431ZM191.647 362.04H86.1328L243.327 90.5099L323 226.275L270.225 318.346C250.098 351.285 227.15 362.04 191.647 362.04Z" fill="#00DC82"/>
<path d="M605.672 230.734L538.832 193L559.672 230.734H90.8185L104.672 193L46.7674 230.734H46.6719V313.285C46.6719 350.601 84.4163 381 130.761 381H219.15C265.494 381 303.239 350.601 303.239 313.285V259.039H349.105V313.285C349.105 350.601 386.85 381 433.194 381H521.583C567.927 381 605.672 350.601 605.672 313.285V230.734Z" fill="#FC60A8"/>
<path d="M409.098 348.034L397.072 310.305L425.998 301.084C427.326 300.661 428.637 300.609 429.932 300.928C431.261 301.235 432.436 301.842 433.456 302.748C434.465 303.62 435.181 304.719 435.604 306.047L437.959 313.435C438.104 313.89 438.208 314.337 438.272 314.779C438.336 315.22 438.341 315.661 438.289 316.101C439.139 316.715 439.878 317.403 440.506 318.165C441.169 318.916 441.639 319.728 441.917 320.602L444.506 328.724C444.93 330.052 444.987 331.38 444.68 332.71C444.361 334.004 443.749 335.161 442.843 336.182C441.936 337.202 440.819 337.923 439.492 338.346L409.098 348.034ZM414.423 338.659L436.956 331.477C437.131 331.421 437.271 331.319 437.377 331.17C437.473 330.985 437.492 330.806 437.437 330.631L435.048 323.138C434.993 322.963 434.878 322.845 434.705 322.785C434.521 322.69 434.341 322.67 434.167 322.726L411.634 329.908C411.459 329.964 411.324 330.084 411.229 330.268C411.157 330.406 411.149 330.563 411.205 330.738L413.594 338.231C413.649 338.406 413.752 338.546 413.901 338.653C414.074 338.713 414.248 338.715 414.423 338.659ZM409.412 322.939L430.478 316.224C430.652 316.168 430.775 316.071 430.847 315.933C430.907 315.76 430.909 315.586 430.854 315.412L428.682 308.599C428.627 308.425 428.53 308.302 428.392 308.23C428.242 308.124 428.08 308.098 427.905 308.154L406.84 314.869C406.665 314.924 406.53 315.044 406.435 315.229C406.364 315.367 406.356 315.523 406.411 315.698L408.583 322.51C408.638 322.685 408.741 322.826 408.89 322.932C409.063 322.992 409.237 322.994 409.412 322.939ZM452.594 334.17L440.551 296.388L447.468 294.183L457.29 324.996L488.102 315.174L490.324 322.144L452.594 334.17ZM500.558 318.882C499.23 319.305 497.902 319.363 496.572 319.055C495.278 318.737 494.126 318.142 493.117 317.27C492.097 316.364 491.375 315.247 490.952 313.92L483.569 290.758C483.146 289.43 483.094 288.119 483.413 286.825C483.72 285.495 484.309 284.326 485.181 283.317C486.087 282.297 487.204 281.575 488.532 281.152L511.693 273.769C513.021 273.346 514.332 273.294 515.627 273.613C516.956 273.92 518.131 274.527 519.151 275.433C520.16 276.305 520.876 277.404 521.299 278.732L528.682 301.893C529.105 303.221 529.163 304.55 528.855 305.879C528.537 307.174 527.924 308.331 527.018 309.351C526.147 310.36 525.047 311.076 523.72 311.499L500.558 318.882ZM498.598 311.829L521.131 304.647C521.306 304.591 521.447 304.488 521.553 304.339C521.648 304.155 521.668 303.975 521.612 303.801L514.43 281.268C514.374 281.093 514.26 280.975 514.087 280.915C513.902 280.82 513.723 280.8 513.548 280.856L491.015 288.038C490.84 288.094 490.706 288.214 490.61 288.398C490.539 288.536 490.531 288.693 490.587 288.867L497.769 311.4C497.825 311.575 497.927 311.716 498.077 311.822C498.25 311.882 498.424 311.885 498.598 311.829ZM544.058 305.016C542.731 305.439 541.402 305.497 540.073 305.19C538.778 304.871 537.626 304.276 536.618 303.405C535.597 302.499 534.876 301.382 534.453 300.054L527.07 276.892C526.647 275.565 526.594 274.254 526.913 272.959C527.22 271.63 527.81 270.46 528.681 269.451C529.588 268.431 530.705 267.71 532.032 267.287L555.142 259.921C556.469 259.497 557.798 259.44 559.127 259.747C560.457 260.054 561.631 260.661 562.651 261.568C563.66 262.439 564.376 263.538 564.8 264.866L565.735 267.801L558.765 270.022L557.93 267.402C557.875 267.227 557.76 267.11 557.587 267.05C557.403 266.954 557.223 266.935 557.049 266.99L534.516 274.173C534.341 274.228 534.206 274.348 534.111 274.532C534.039 274.671 534.032 274.827 534.087 275.002L541.27 297.535C541.325 297.71 541.428 297.85 541.577 297.956C541.75 298.017 541.924 298.019 542.099 297.963L564.632 290.781C564.807 290.725 564.947 290.623 565.053 290.473C565.149 290.289 565.168 290.11 565.113 289.935L562.941 283.123L554.4 285.845L552.178 278.876L567.689 273.932L572.182 288.028C572.606 289.355 572.663 290.684 572.356 292.013C572.037 293.308 571.425 294.465 570.519 295.485C569.612 296.505 568.495 297.227 567.168 297.65L544.058 305.016Z" fill="white"/>
</svg>
