<svg width="646" height="543" viewBox="0 0 646 543" fill="none" xmlns="http://www.w3.org/2000/svg">
<path d="M85.2 478.2C89.2 478.2 92.5 479.6 95.3 482.4C98.1 485.2 99.5 488.6 99.5 492.5V542.1H48.8C44.8 542.1 41.5 540.7 38.7 537.9C35.9 535.1 34.5 531.7 34.5 527.8V504.2H87.6V492.5C87.6 491.8 87.4 491.3 86.9 490.8C86.4 490.3 85.9 490.1 85.2 490.1H34.5V478.2H85.2ZM87.6 530.2V516.1H46.4V527.8C46.4 528.5 46.6 529 47.1 529.5C47.6 530 48.1 530.2 48.8 530.2H87.6ZM202.3 478.2H215L191 542.1H181.3L159.8 494.6L139.5 542.1L139.3 542L139.4 542.1H129.8L104.7 478.2H117.3L134.6 520.6L153 478.2H166.6L186.1 520.6L202.3 478.2ZM269.5 478.2C273.5 478.2 276.8 479.6 279.6 482.4C282.4 485.2 283.8 488.6 283.8 492.5V516.1H230.7V527.8C230.7 528.5 230.9 529 231.4 529.5C231.9 530 232.4 530.2 233.1 530.2H283.8V542.1H233.1C229.1 542.1 225.8 540.7 223 537.9C220.2 535.1 218.8 531.7 218.8 527.8V492.5C218.8 488.5 220.2 485.2 223 482.4C225.8 479.6 229.2 478.2 233.1 478.2H269.5ZM230.7 504.2H271.9V492.5C271.9 491.8 271.7 491.3 271.2 490.8C270.7 490.3 270.2 490.1 269.5 490.1H233.1C232.4 490.1 231.9 490.3 231.4 490.8C230.9 491.3 230.7 491.8 230.7 492.5V504.2ZM359.7 492.6V495H347.8V492.6C347.8 491.9 347.6 491.4 347.1 490.9C346.6 490.4 346.1 490.2 345.4 490.2H309C308.3 490.2 307.8 490.4 307.3 490.9C306.8 491.4 306.6 491.9 306.6 492.6V501.9C306.6 502.6 306.8 503.1 307.3 503.6C307.8 504.1 308.3 504.3 309 504.3H345.4C349.4 504.3 352.7 505.7 355.5 508.5C358.3 511.3 359.7 514.7 359.7 518.6V527.9C359.7 531.9 358.3 535.2 355.5 538C352.7 540.8 349.3 542.2 345.4 542.2H309C305 542.2 301.7 540.8 298.9 538C296.1 535.2 294.7 531.8 294.7 527.9V525.5H306.6V527.9C306.6 528.6 306.8 529.1 307.3 529.6C307.8 530.1 308.3 530.3 309 530.3H345.4C346.1 530.3 346.6 530.1 347.1 529.6C347.6 529.1 347.8 528.6 347.8 527.9V518.6C347.8 517.9 347.6 517.4 347.1 516.9C346.6 516.4 346.1 516.2 345.4 516.2H309C305 516.2 301.7 514.8 298.9 512C296.1 509.2 294.7 505.8 294.7 501.9V492.6C294.7 488.6 296.1 485.3 298.9 482.5C301.7 479.7 305.1 478.3 309 478.3H345.4C349.4 478.3 352.7 479.7 355.5 482.5C358.3 485.2 359.7 488.6 359.7 492.6ZM384.9 478.2H421.3C425.3 478.2 428.6 479.6 431.4 482.4C434.2 485.2 435.6 488.6 435.6 492.5V527.8C435.6 531.8 434.2 535.1 431.4 537.9C428.6 540.7 425.2 542.1 421.3 542.1H384.9C380.9 542.1 377.6 540.7 374.8 537.9C372 535.1 370.6 531.7 370.6 527.8V492.5C370.6 488.5 372 485.2 374.8 482.4C377.6 479.6 381 478.2 384.9 478.2ZM421.3 490.1H384.9C384.2 490.1 383.7 490.3 383.2 490.8C382.7 491.3 382.5 491.8 382.5 492.5V527.8C382.5 528.5 382.7 529 383.2 529.5C383.7 530 384.2 530.2 384.9 530.2H421.3C422 530.2 422.5 530 423 529.5C423.5 529 423.7 528.5 423.7 527.8V492.5C423.7 491.8 423.5 491.3 423 490.8C422.5 490.4 422 490.1 421.3 490.1ZM528.8 478.2C532.8 478.2 536.1 479.6 538.9 482.4C541.7 485.2 543.1 488.6 543.1 492.5V542.1H531.3V492.5C531.3 491.8 531.1 491.3 530.6 490.8C530.1 490.3 529.5 490.1 528.8 490.1H503.6C502.9 490.1 502.4 490.3 501.9 490.8C501.4 491.3 501.2 491.8 501.2 492.5V542.1H489.3V492.5C489.3 491.8 489.1 491.3 488.6 490.8C488.1 490.3 487.6 490.1 486.9 490.1H461.6C460.9 490.1 460.4 490.3 459.9 490.8C459.4 491.3 459.2 491.8 459.2 492.5V542.1H447.3V478.2H528.8ZM605.3 478.2C609.3 478.2 612.6 479.6 615.4 482.4C618.2 485.2 619.6 488.6 619.6 492.5V516.1H566.5V527.8C566.5 528.5 566.7 529 567.2 529.5C567.7 530 568.2 530.2 568.9 530.2H619.6V542.1H568.9C564.9 542.1 561.6 540.7 558.8 537.9C556 535.1 554.6 531.7 554.6 527.8V492.5C554.6 488.5 556 485.2 558.8 482.4C561.6 479.6 565 478.2 568.9 478.2H605.3ZM566.5 504.2H607.7V492.5C607.7 491.8 607.5 491.3 607 490.8C606.5 490.3 606 490.1 605.3 490.1H568.9C568.2 490.1 567.7 490.3 567.2 490.8C566.7 491.3 566.5 491.8 566.5 492.5V504.2Z" fill="#494368"/>
<path d="M361.76 431H600.78C608.407 431 615.708 428.318 622.313 424.535C628.919 420.752 635.728 416.002 639.54 409.449C643.352 402.897 646.003 395.462 646 387.898C645.997 380.332 643.358 372.9 639.54 366.352L478.04 88.3554C474.228 81.8035 469.57 77.0523 462.967 73.2694C456.362 69.488 446.906 66.8044 439.28 66.8044C431.654 66.8044 424.35 69.488 417.747 73.2694C411.142 77.0523 406.485 81.8035 402.673 88.3554L361.76 159.47L279.933 21.5449C276.118 14.9945 271.466 8.09192 264.86 4.31051C258.254 0.527573 250.954 0 243.327 0C235.7 0 228.399 0.527573 221.793 4.31051C215.188 8.09192 208.382 14.9945 204.567 21.5449L4.30673 366.352C0.48878 372.9 0.00336859 380.332 1.67068e-05 387.898C-0.00333518 395.462 0.49457 402.896 4.30673 409.449C8.11889 416.001 14.928 420.752 21.5333 424.535C28.1388 428.318 35.4391 431 43.0667 431H193.8C253.526 431 296.999 404.187 327.307 353.42L400.52 226.275L439.28 159.47L557.713 362.04H400.52L361.76 431ZM191.647 362.04H86.1328L243.327 90.5099L323 226.275L270.225 318.346C250.098 351.285 227.15 362.04 191.647 362.04Z" fill="#00DC82"/>
<path d="M606 230.531L487.5 104.5L560 230.531H91.1467L157.5 103L47.0956 230.531H47V312.644C47 349.762 84.7444 380 131.089 380H219.478C265.822 380 303.567 349.762 303.567 312.644V258.686H349.433V312.644C349.433 349.762 387.178 380 433.522 380H521.911C568.256 380 606 349.762 606 312.644V230.531Z" fill="#FC60A8"/>
</svg>
