<svg width="640" height="539" viewBox="0 0 640 539" fill="none" xmlns="http://www.w3.org/2000/svg">
<path d="M79.2 474.2C83.2 474.2 86.5 475.6 89.3 478.4C92.1 481.2 93.5 484.6 93.5 488.5V538.1H42.8C38.8 538.1 35.5 536.7 32.7 533.9C29.9 531.1 28.5 527.7 28.5 523.8V500.2H81.6V488.5C81.6 487.8 81.4 487.3 80.9 486.8C80.4 486.3 79.9 486.1 79.2 486.1H28.5V474.2H79.2ZM81.6 526.2V512.1H40.4V523.8C40.4 524.5 40.6 525 41.1 525.5C41.6 526 42.1 526.2 42.8 526.2H81.6ZM196.3 474.2H209L185 538.1H175.3L153.8 490.6L133.5 538.1L133.3 538L133.4 538.1H123.8L98.7 474.2H111.3L128.6 516.6L147 474.2H160.6L180.1 516.6L196.3 474.2ZM263.5 474.2C267.5 474.2 270.8 475.6 273.6 478.4C276.4 481.2 277.8 484.6 277.8 488.5V512.1H224.7V523.8C224.7 524.5 224.9 525 225.4 525.5C225.9 526 226.4 526.2 227.1 526.2H277.8V538.1H227.1C223.1 538.1 219.8 536.7 217 533.9C214.2 531.1 212.8 527.7 212.8 523.8V488.5C212.8 484.5 214.2 481.2 217 478.4C219.8 475.6 223.2 474.2 227.1 474.2H263.5ZM224.7 500.2H265.9V488.5C265.9 487.8 265.7 487.3 265.2 486.8C264.7 486.3 264.2 486.1 263.5 486.1H227.1C226.4 486.1 225.9 486.3 225.4 486.8C224.9 487.3 224.7 487.8 224.7 488.5V500.2ZM353.7 488.6V491H341.8V488.6C341.8 487.9 341.6 487.4 341.1 486.9C340.6 486.4 340.1 486.2 339.4 486.2H303C302.3 486.2 301.8 486.4 301.3 486.9C300.8 487.4 300.6 487.9 300.6 488.6V497.9C300.6 498.6 300.8 499.1 301.3 499.6C301.8 500.1 302.3 500.3 303 500.3H339.4C343.4 500.3 346.7 501.7 349.5 504.5C352.3 507.3 353.7 510.7 353.7 514.6V523.9C353.7 527.9 352.3 531.2 349.5 534C346.7 536.8 343.3 538.2 339.4 538.2H303C299 538.2 295.7 536.8 292.9 534C290.1 531.2 288.7 527.8 288.7 523.9V521.5H300.6V523.9C300.6 524.6 300.8 525.1 301.3 525.6C301.8 526.1 302.3 526.3 303 526.3H339.4C340.1 526.3 340.6 526.1 341.1 525.6C341.6 525.1 341.8 524.6 341.8 523.9V514.6C341.8 513.9 341.6 513.4 341.1 512.9C340.6 512.4 340.1 512.2 339.4 512.2H303C299 512.2 295.7 510.8 292.9 508C290.1 505.2 288.7 501.8 288.7 497.9V488.6C288.7 484.6 290.1 481.3 292.9 478.5C295.7 475.7 299.1 474.3 303 474.3H339.4C343.4 474.3 346.7 475.7 349.5 478.5C352.3 481.2 353.7 484.6 353.7 488.6ZM378.9 474.2H415.3C419.3 474.2 422.6 475.6 425.4 478.4C428.2 481.2 429.6 484.6 429.6 488.5V523.8C429.6 527.8 428.2 531.1 425.4 533.9C422.6 536.7 419.2 538.1 415.3 538.1H378.9C374.9 538.1 371.6 536.7 368.8 533.9C366 531.1 364.6 527.7 364.6 523.8V488.5C364.6 484.5 366 481.2 368.8 478.4C371.6 475.6 375 474.2 378.9 474.2ZM415.3 486.1H378.9C378.2 486.1 377.7 486.3 377.2 486.8C376.7 487.3 376.5 487.8 376.5 488.5V523.8C376.5 524.5 376.7 525 377.2 525.5C377.7 526 378.2 526.2 378.9 526.2H415.3C416 526.2 416.5 526 417 525.5C417.5 525 417.7 524.5 417.7 523.8V488.5C417.7 487.8 417.5 487.3 417 486.8C416.5 486.4 416 486.1 415.3 486.1ZM522.8 474.2C526.8 474.2 530.1 475.6 532.9 478.4C535.7 481.2 537.1 484.6 537.1 488.5V538.1H525.3V488.5C525.3 487.8 525.1 487.3 524.6 486.8C524.1 486.3 523.5 486.1 522.8 486.1H497.6C496.9 486.1 496.4 486.3 495.9 486.8C495.4 487.3 495.2 487.8 495.2 488.5V538.1H483.3V488.5C483.3 487.8 483.1 487.3 482.6 486.8C482.1 486.3 481.6 486.1 480.9 486.1H455.6C454.9 486.1 454.4 486.3 453.9 486.8C453.4 487.3 453.2 487.8 453.2 488.5V538.1H441.3V474.2H522.8ZM599.3 474.2C603.3 474.2 606.6 475.6 609.4 478.4C612.2 481.2 613.6 484.6 613.6 488.5V512.1H560.5V523.8C560.5 524.5 560.7 525 561.2 525.5C561.7 526 562.2 526.2 562.9 526.2H613.6V538.1H562.9C558.9 538.1 555.6 536.7 552.8 533.9C550 531.1 548.6 527.7 548.6 523.8V488.5C548.6 484.5 550 481.2 552.8 478.4C555.6 475.6 559 474.2 562.9 474.2H599.3ZM560.5 500.2H601.7V488.5C601.7 487.8 601.5 487.3 601 486.8C600.5 486.3 600 486.1 599.3 486.1H562.9C562.2 486.1 561.7 486.3 561.2 486.8C560.7 487.3 560.5 487.8 560.5 488.5V500.2Z" fill="#494368"/>
<path d="M358.359 426.607H594.904C602.452 426.607 609.678 423.955 616.214 420.214C622.752 416.473 629.491 411.776 633.263 405.296C637.036 398.817 639.659 391.465 639.656 383.984C639.653 376.503 637.042 369.154 633.263 362.677L473.435 87.7716C469.662 81.2926 465.053 76.5942 458.518 72.8533C451.982 69.114 442.623 66.4602 435.076 66.4602C427.53 66.4602 420.301 69.114 413.766 72.8533C407.23 76.5942 402.621 81.2926 398.848 87.7716L358.359 158.096L277.379 21.7038C273.603 15.2263 269 8.4004 262.462 4.66103C255.924 0.920146 248.7 0.398438 241.152 0.398438C233.604 0.398438 226.378 0.920146 219.841 4.66103C213.304 8.4004 206.569 15.2263 202.793 21.7038L4.6059 362.677C0.82747 369.154 0.347084 376.503 0.343767 383.984C0.340449 391.465 0.8332 398.815 4.6059 405.296C8.3786 411.775 15.1172 416.473 21.6541 420.214C28.1913 423.955 35.4159 426.607 42.9647 426.607H192.138C251.245 426.607 294.268 400.092 324.263 349.89L396.718 224.158L435.076 158.096L552.283 358.413H396.718L358.359 426.607ZM190.007 358.413H85.5849L241.152 89.9022L320 224.158L267.771 315.206C247.853 347.779 225.142 358.413 190.007 358.413Z" fill="#00DC82"/>
<path d="M600 226.531L480.5 100.5L555.949 226.531H85.1467L158 99L41.0956 226.531H41V308.644C41 345.762 78.7444 376 125.089 376H213.478C259.822 376 297.567 345.762 297.567 308.644V254.686H343.433V308.644C343.433 345.762 381.178 376 427.522 376H515.911C562.256 376 600 345.762 600 308.644V226.531Z" fill="#FC60A8"/>
</svg>
